<?xml version="1.0" encoding="UTF-8"?>
<svg xmlns="http://www.w3.org/2000/svg" xmlns:xlink="http://www.w3.org/1999/xlink">
	<style>
		:root>svg{display:none}:root>svg:target{display:block}
	</style>
	<svg viewBox="0 0 8 6" id="angle-down" xmlns="http://www.w3.org/2000/svg">
		<path d="M0 0h8L4 6z" fill="#9B9B9B" fill-rule="evenodd" />
	</svg>
	<svg viewBox="0 0 8 16" id="arrow-left" xmlns="http://www.w3.org/2000/svg">
		<path d="M0 8l8-8v16z" fill="#000" fill-rule="evenodd" />
	</svg>
	<svg viewBox="0 0 8 16" id="arrow-right" xmlns="http://www.w3.org/2000/svg">
		<path d="M8 8L0 0v16z" fill="#000" fill-rule="evenodd" />
	</svg>
	<svg viewBox="0 0 18 18" id="close" xmlns="http://www.w3.org/2000/svg">
		<path d="M9 7.615L16.615 0 18 1.385 10.385 9 18 16.615 16.615 18 9 10.385 1.385 18 0 16.615 7.615 9 0 1.385 1.385 0 9 7.615z" fill="#000" fill-rule="evenodd" />
	</svg>
	<svg viewBox="0 0 32 32" id="color-1" xmlns="http://www.w3.org/2000/svg">
		<path d="M0 0h32v32H0z" fill="#FF7F96" fill-rule="evenodd" />
	</svg>
	<svg viewBox="0 0 32 32" id="color-2" xmlns="http://www.w3.org/2000/svg">
		<path d="M0 0h32v32H0z" fill="#F7A9F8" fill-rule="evenodd" />
	</svg>
	<svg viewBox="0 0 24 14" id="hamburger" xmlns="http://www.w3.org/2000/svg">
		<path d="M0 0h24v2H0V0zm0 12h24v2H0v-2z" fill="#000" fill-rule="evenodd" />
	</svg>
	<svg viewBox="0 0 160 32" id="logo" xmlns="http://www.w3.org/2000/svg">
		<g fill="#FF7F96" fill-rule="evenodd">
			<path d="M0 18.593h4.882c.103 1.978 1.537 3.343 3.415 3.343 2.082 0 3.38-1.535 3.38-3.343 0-2.559-2.185-3.514-3.688-4.026-.82-.273-1.673-.512-2.458-.853-3.824-1.603-4.61-4.571-4.61-6.55C.922 3.855 3.484 0 8.434 0c4.814 0 7.136 3.684 7.307 7.164h-4.814c0-1.262-.717-2.797-2.63-2.797C6.35 4.367 5.6 5.834 5.6 7.198c0 1.979 1.844 2.627 3.244 3.07.82.274 1.605.512 2.39.82 1.195.477 5.121 2.217 5.121 7.232 0 4.469-3.38 7.983-8.194 7.983-3.824 0-8.126-2.559-8.16-7.71zM33.72 6.175c5.804 0 10.038 4.571 10.038 10.098 0 5.492-4.268 10.03-10.038 10.03-5.77 0-10.038-4.538-10.038-10.03 0-5.527 4.234-10.098 10.038-10.098zm0 4.298c-3.38 0-5.497 2.73-5.497 5.8s2.151 5.731 5.497 5.731 5.497-2.66 5.497-5.731c0-3.07-2.117-5.8-5.497-5.8zM70.923 6.79v18.9h-4.165V23.13h-.069c-2.185 3.002-5.326 3.173-6.316 3.173-4.814 0-9.253-3.787-9.253-9.894 0-5.936 4.166-10.234 9.39-10.234 2.697 0 4.814 1.126 6.18 3.275h.068V6.789h4.165zm-9.696 3.684c-3.278 0-5.566 2.525-5.566 5.936 0 3.207 2.254 5.595 5.566 5.595 3.243 0 5.428-2.354 5.428-5.8 0-3.274-2.15-5.73-5.428-5.73zM80.197 32V6.789h4.166v2.456h.068c1.605-2.627 4.61-3.07 6.077-3.07 5.156 0 9.492 3.957 9.492 10.064 0 5.185-3.483 10.064-9.492 10.064-1.536 0-3.926-.41-5.701-2.661h-.069V32h-4.54zm9.833-21.527c-3.311 0-5.565 2.457-5.565 5.766 0 3.616 2.322 5.765 5.395 5.765 3.243 0 5.6-2.456 5.6-5.8 0-2.524-1.606-5.73-5.43-5.73z" />
			<path d="M20 18.593h4.882c.103 1.978 1.537 3.343 3.415 3.343 2.082 0 3.38-1.535 3.38-3.343 0-2.559-2.185-3.514-3.688-4.026-.82-.273-1.673-.512-2.458-.853-3.824-1.603-4.61-4.571-4.61-6.55C20.922 3.855 23.484 0 28.434 0c4.814 0 7.136 3.684 7.307 7.164h-4.814c0-1.262-.717-2.797-2.63-2.797-1.946 0-2.697 1.467-2.697 2.831 0 1.979 1.844 2.627 3.244 3.07.82.274 1.605.512 2.39.82 1.195.477 5.121 2.217 5.121 7.232 0 4.469-3.38 7.983-8.194 7.983-3.824 0-8.126-2.559-8.16-7.71zM53.72 6.175c5.804 0 10.038 4.571 10.038 10.098 0 5.492-4.268 10.03-10.038 10.03-5.77 0-10.038-4.538-10.038-10.03 0-5.527 4.234-10.098 10.038-10.098zm0 4.298c-3.38 0-5.497 2.73-5.497 5.8s2.151 5.731 5.497 5.731 5.497-2.66 5.497-5.731c0-3.07-2.117-5.8-5.497-5.8zM90.923 6.79v18.9h-4.165V23.13h-.069c-2.185 3.002-5.326 3.173-6.316 3.173-4.814 0-9.253-3.787-9.253-9.894 0-5.936 4.166-10.234 9.39-10.234 2.697 0 4.814 1.126 6.18 3.275h.068V6.789h4.165zm-9.696 3.684c-3.278 0-5.566 2.525-5.566 5.936 0 3.207 2.254 5.595 5.566 5.595 3.243 0 5.428-2.354 5.428-5.8 0-3.274-2.15-5.73-5.428-5.73zM100.197 32V6.789h4.166v2.456h.068c1.605-2.627 4.61-3.07 6.077-3.07 5.156 0 9.492 3.957 9.492 10.064 0 5.185-3.483 10.064-9.492 10.064-1.536 0-3.926-.41-5.701-2.661h-.069V32h-4.54zm9.833-21.527c-3.311 0-5.565 2.457-5.565 5.766 0 3.616 2.322 5.765 5.395 5.765 3.243 0 5.6-2.456 5.6-5.8 0-2.524-1.606-5.73-5.43-5.73z" opacity=".3" />
			<path d="M40 18.593h4.882c.103 1.978 1.537 3.343 3.415 3.343 2.082 0 3.38-1.535 3.38-3.343 0-2.559-2.185-3.514-3.688-4.026-.82-.273-1.673-.512-2.458-.853-3.824-1.603-4.61-4.571-4.61-6.55C40.922 3.855 43.484 0 48.434 0c4.814 0 7.136 3.684 7.307 7.164h-4.814c0-1.262-.717-2.797-2.63-2.797-1.946 0-2.697 1.467-2.697 2.831 0 1.979 1.844 2.627 3.244 3.07.82.274 1.605.512 2.39.82 1.195.477 5.121 2.217 5.121 7.232 0 4.469-3.38 7.983-8.194 7.983-3.824 0-8.126-2.559-8.16-7.71zM73.72 6.175c5.804 0 10.038 4.571 10.038 10.098 0 5.492-4.268 10.03-10.038 10.03-5.77 0-10.038-4.538-10.038-10.03 0-5.527 4.234-10.098 10.038-10.098zm0 4.298c-3.38 0-5.497 2.73-5.497 5.8s2.151 5.731 5.497 5.731 5.497-2.66 5.497-5.731c0-3.07-2.117-5.8-5.497-5.8zm37.203-3.684v18.9h-4.165V23.13h-.069c-2.185 3.002-5.326 3.173-6.316 3.173-4.814 0-9.253-3.787-9.253-9.894 0-5.936 4.166-10.234 9.39-10.234 2.697 0 4.814 1.126 6.18 3.275h.068V6.789h4.165zm-9.696 3.684c-3.278 0-5.566 2.525-5.566 5.936 0 3.207 2.254 5.595 5.566 5.595 3.243 0 5.428-2.354 5.428-5.8 0-3.274-2.15-5.73-5.428-5.73zM120.197 32V6.789h4.166v2.456h.068c1.605-2.627 4.61-3.07 6.077-3.07 5.156 0 9.492 3.957 9.492 10.064 0 5.185-3.483 10.064-9.492 10.064-1.536 0-3.926-.41-5.701-2.661h-.069V32h-4.54zm9.833-21.527c-3.311 0-5.565 2.457-5.565 5.766 0 3.616 2.322 5.765 5.395 5.765 3.243 0 5.6-2.456 5.6-5.8 0-2.524-1.606-5.73-5.43-5.73z" opacity=".2" />
			<path d="M60 18.593h4.882c.103 1.978 1.537 3.343 3.415 3.343 2.082 0 3.38-1.535 3.38-3.343 0-2.559-2.185-3.514-3.688-4.026-.82-.273-1.673-.512-2.458-.853-3.824-1.603-4.61-4.571-4.61-6.55C60.922 3.855 63.484 0 68.434 0c4.814 0 7.136 3.684 7.307 7.164h-4.814c0-1.262-.717-2.797-2.63-2.797-1.946 0-2.697 1.467-2.697 2.831 0 1.979 1.844 2.627 3.244 3.07.82.274 1.605.512 2.39.82 1.195.477 5.121 2.217 5.121 7.232 0 4.469-3.38 7.983-8.194 7.983-3.824 0-8.126-2.559-8.16-7.71zM93.72 6.175c5.804 0 10.038 4.571 10.038 10.098 0 5.492-4.268 10.03-10.038 10.03-5.77 0-10.038-4.538-10.038-10.03 0-5.527 4.234-10.098 10.038-10.098zm0 4.298c-3.38 0-5.497 2.73-5.497 5.8s2.151 5.731 5.497 5.731 5.497-2.66 5.497-5.731c0-3.07-2.117-5.8-5.497-5.8zm37.203-3.684v18.9h-4.165V23.13h-.069c-2.185 3.002-5.326 3.173-6.316 3.173-4.814 0-9.253-3.787-9.253-9.894 0-5.936 4.166-10.234 9.39-10.234 2.697 0 4.814 1.126 6.18 3.275h.068V6.789h4.165zm-9.696 3.684c-3.278 0-5.566 2.525-5.566 5.936 0 3.207 2.254 5.595 5.566 5.595 3.243 0 5.428-2.354 5.428-5.8 0-3.274-2.15-5.73-5.428-5.73zM140.197 32V6.789h4.166v2.456h.068c1.605-2.627 4.61-3.07 6.077-3.07 5.156 0 9.492 3.957 9.492 10.064 0 5.185-3.483 10.064-9.492 10.064-1.536 0-3.926-.41-5.701-2.661h-.069V32h-4.54zm9.833-21.527c-3.311 0-5.565 2.457-5.565 5.766 0 3.616 2.322 5.765 5.395 5.765 3.243 0 5.6-2.456 5.6-5.8 0-2.524-1.606-5.73-5.43-5.73z" opacity=".1" />
		</g>
	</svg>
</svg>
